<?xml version="1.0" encoding="iso-8859-1"?>
<!-- Generator: Adobe Illustrator 16.0.0, SVG Export Plug-In . SVG Version: 6.00 Build 0)  -->
<!DOCTYPE svg PUBLIC "-//W3C//DTD SVG 1.1//EN" "http://www.w3.org/Graphics/SVG/1.1/DTD/svg11.dtd">
<svg version="1.1" id="Layer_1" xmlns="http://www.w3.org/2000/svg" xmlns:xlink="http://www.w3.org/1999/xlink" x="0px" y="0px"
	 width="864px" height="864px" viewBox="0 0 864 864" style="enable-background:new 0 0 864 864;" xml:space="preserve">
<path style="fill:ffffff;" d="M263.113,70.679c-3.048,0-5.395,0.818-6.605,1.336c-3.5,1.5-1.5,7.5-3,14.5s1.5,47.5,1.5,47.5
	c2.918,2.26,5.588,3.207,8.047,3.207c10.6,0,17.271-17.619,22.953-23.707c7-7.5,11-6-1-26.5
	C277.158,73.604,268.88,70.679,263.113,70.679z"/>
<path style="fill:#FFFFFF;" d="M771.206,191.501l-4.483-4.856l-17.999-19.499l-0.149-0.162l-0.155-0.155l-19.499-19.5l-1.262-1.262
	l-1.598-0.798c-4.896-2.448-30.097-14.661-45.416-14.661c-18.259,0-32.522,17.169-34.089,19.127l-0.39,0.487l-0.332,0.528
	c-0.125,0.198-12.643,20.084-26.468,40.837c-18.327,27.512-26.896,38.482-30.692,42.815c-7.776-1.94-17.834-2.895-22.682-3.268
	l-2.941-0.226l-2.661,1.277c-17.28,8.294-36.801,17.462-40.509,18.901c-3.593,0.706-19.297,1.741-33.272,2.393l-34.58-17.981
	l-22.212-13.327l-1.036-0.621l-1.146-0.382l-26.999-9l-3.327-1.109l-3.354,1.021l-25.302,7.701l-12.214-26.65L346.3,161.266
	l-7.39-33.994l-0.169-0.779l-0.28-0.747l-13.5-35.998l-0.741-1.976l-1.419-1.562l-14.708-16.178
	c-1.649-2.134-11.097-14.413-20.418-27.729c-6.715-9.593-16.111-14.876-26.458-14.876h-0.001h-0.002
	c-5.768,0-9.89,1.632-11.016,2.132l-1.867,0.83l-1.445,1.445c-0.394,0.394-9.734,9.771-17.672,20.884
	c-4.883,6.836-9.424,9.31-10.244,9.718l-5.013,1.735l-1.227,4.961l-2.677,8.03l-14.503,26.104l-0.237,0.428l-0.199,0.447
	l-11.999,26.999l-0.838,1.884l-0.098,2.06c-0.062,1.297-1.513,31.848-1.513,39.521c0,7.333,3.593,43.917,4.427,52.306
	c-1.806,13.049-5.194,26.666-7.551,30.367c-9.416,6.271-11.268,17.122-12.388,23.69c-0.229,1.341-0.445,2.608-0.659,3.463
	c-0.798,3.191-1.213,7.895,3.137,26.874c1.419,6.19,2.907,11.971,3.745,15.151l-8.352,41.755
	c-3.007,8.727-15.035,43.737-16.529,49.713c-1.028,4.113-1.078,10.968-1.078,22.729c0,8.158,0,17.405-0.64,21.881
	c-0.552,3.86-0.627,11.14,5.059,29.712c2.887,9.431,5.923,17.422,6.051,17.758l0.521,1.369l0.862,1.185l19.492,26.802
	l-10.749,16.124c-3.767,5.649-5.598,13.901-5.598,25.226c0,7.395,0.813,13.569,0.847,13.828l0.082,0.613l0.15,0.601
	c0.134,0.537,3.35,13.286,8.332,23.251c4.454,8.907,30.19,50.191,34.64,57.316l7.587,16.436c-0.812,16.023-3.124,32.4-5.16,36.178
	c-7.236,9.246-10.473,25.49-11.052,28.676l-0.368,2.023l0.389,2.021l7.499,38.998l1.549,8.053l8.159,0.814l14.999,1.5l2.342,0.234
	l2.231-0.744l26.999-9l0.06-0.02l0.06-0.021c16.427-5.686,36.354-12.15,40.572-12.91c5.969-0.291,10.559-4.488,17.38-10.723
	c2.609-2.385,7.746-7.082,10.427-8.623c2.659,0.781,8.182,3.354,12.462,5.857l0.461,0.27l0.485,0.225l18.958,8.75l6.99,4.193
	l0.756,0.453l0.818,0.328l26.268,10.506c1.002,1.809,2.316,4.078,3.801,6.396c5.857,9.152,10.746,13.654,16.347,15.055
	c6.523,1.631,29.653,2.947,36.588,3.313l1.908,0.1l1.831-0.549l27.7-8.309l51.472,7.148c3.775,0.625,55.466,9.125,81.158,9.125
	c23.609,0,35.314-9.928,40.053-15.557c4.524-1.982,13.787-6.207,23.258-11.529c20.82-11.703,30.576-21.674,31.633-32.326
	c0.809-8.162-4.407-16.594-16.914-27.342c-0.549-0.471-1.098-0.934-1.644-1.389l3.116-1.947l0.457-5.494l1.381-16.563
	c1.373-3.965,4.657-14.385,4.657-23.348c0-8.412-3.203-29.939-4.309-37.119l10.038-44.454l0.375-1.663l-0.145-1.699l-4.5-52.497
	l-0.111-1.301l-0.413-1.238c-3.313-9.941-20.159-60.082-26.384-70.976l-0.553-0.966c-0.086-5.141,0.639-15.769,1.816-25.861
	l7.238-24.608l0.447-1.52v-1.584c0-0.099,0.025-10.662,1.482-36.888c1.026-18.469,6.33-25.175,15.117-36.284
	c2.173-2.748,4.42-5.588,6.795-8.854c8.718-11.986,11.712-15.799,12.529-16.81l1.639-1.308l0.156-1.204l13.24-25.007l10.316-15.477
	c3.886-0.194,7.467-1.9,10.152-4.853c4.988-5.486,6.488-14.413,5.02-29.851c-2.74-28.765,6.834-56.542,6.931-56.82L771.206,191.501z
	 M295.667,116.167c-0.784,0.742-2.237,1.516-3,2.333c-0.963,1.031-3.535,4.008-5,6.333c-5.637,8.951-11.284,20.333-24.833,20.333
	c-5.087,0-7.112-1.011-11.833-4.667l-3.5-2l-0.833-3.667c-0.938-12.65-2.319-42.456-0.667-50.167c0.358-1.671,0.954-3.102,1-5
	c0.054-2.21-0.745-4.796-0.167-7.167c1.546-6.341,4.733-7.124,7.167-8.167c2.37-1.015,4.587-0.333,9.333-0.333
	c8.503,0,17.963,0.999,28.5,19c6.343,10.835,8.374,13.788,8.833,18.833C301.437,110.295,298.671,113.324,295.667,116.167z
	 M693.25,248.5l-0.125,0.875l-0.625,1.25c-0.506,0.419-0.784,1.214-1.375,1.625c-0.587,0.407-1.26,0.781-2,1.25
	c-1.477,0.936-3.871,2.375-5.875,3.5c-4.006,2.249-8.547,5.001-13.375,7c-3.044,1.256-5.32,2.059-8.25,2.75
	c-0.47,0.173-2.264,0.612-3.5,1c-1.747,0.546-2.424,0.912-5,1.375c-1.723,0.307-3.595,0.623-5.5,0.625
	c-1.343-0.002-2.162-0.019-3.625-0.375c-1.452-0.359-3.283-0.572-4.75-1.75c-0.971-0.778-0.996-1.308-1.625-2.5
	c-0.851-1.593-2.131-2.691-2.125-4.375c0.002-1.266,0.066-2.139,0.375-3.375c0.311-1.237,1.189-3.33,1.75-4.625
	c2.42-5.59,8.041-13.533,12.709-24.083c4.663-10.542,9.576-22.614,14-33.667c2.947-7.365,6.109-14.825,8-20.667
	c1.08-3.333,1.133-6.279,1.666-8.667l0.125-0.667l0.125-0.813c0.299-1.143,0.206-1.208,0.625-2.438
	c0.42-1.231,0.373-2.125,0.938-3.313c0.381-0.795,0.626-1.752,1.188-2.563c0.325-0.464,0.736-0.491,1.25-1
	c0.592-0.57,0.402-0.501,1.688-1c0.68-0.259,0.224-0.251,1.125-0.25l0.563-0.125c0.811-0.003,1.318,0.213,2.063,0.5
	c0.748,0.285,1.178,0.524,1.688,0.938c1.021,0.841,1.082,1.369,1.5,2.125c0.275,0.51,0.446,1.826,0.625,2.313
	c0.236,0.648,0.088,0.5,0.25,1.188c0.215,0.915,0.6,0.584,0.75,1.688c0.305,2.229,0.5,6.104,1.125,10.875
	c0.625,4.773,1.069,10.625,1.75,17c1.36,12.754,2.498,27.54,2.5,41.375C693.875,237.508,693.814,243.176,693.25,248.5z"/>
<g>
	<path style="fill:#EBEBEB;" d="M178.333,322.333l-10,54.667l-10.667,28l-5.333,38l4,45.334l13.333,32l14.667,15.333L169,565
		l5.333,47.334l17.333,36l17.333,24l10,17.333l-1.333,24.667l-7.333,17.999L203,757l4,37.333L213,805l34-1.334L275,793l34-10.667
		L321,769l10.667-2.667l22,8L396.333,795l7.333,7.333L425,817.666L459.666,817l22.668-6L539,817.666l36,6L619.666,825
		c0,0-23.023-6.693-59.026-24.274c-23.726-11.585-66.716-15.722-85.208-50.139C423,653,372.091,669.875,320.878,605.098
		c-24.177-30.581-47.551-65.1-69.079-103.988c-11.499-20.772-6.8-31.109-32.757-66.126
		C196.53,404.614,190.051,362.914,178.333,322.333z"/>
	<path style="fill:#EBEBEB;" d="M741,283l-17,35l-17,27l-24,31l-3,35l-8,46l-1,17l4,16l10,30l7,20l8,25l2,24l1,22l-4,14
		c0,0,0,51-58,59c-4,0-83,8-94-73s-7-124-3-135s14-64,14-69s-5-44-4-55s6-33,9-37s29-23,29-23s29,22,48,35s20,20,44,9
		S741,283,741,283z"/>
</g>
<g>
	<path d="M294.501,81.458c-10.537-18.001-22.885-21.779-31.388-21.779c-4.747,0-8.567,1.21-10.937,2.225
		c-2.433,1.043-6.743,3.738-8.289,10.079c-0.578,2.37-0.634,4.656-0.688,6.866c-0.046,1.898-0.09,3.691-0.448,5.362
		c-1.652,7.711,0.349,37.967,1.286,50.617l0.362,4.886l3.874,3c4.722,3.656,9.694,5.509,14.781,5.509
		c13.549,0,21.27-12.258,26.907-21.209c1.465-2.325,3.125-4.961,4.087-5.992c0.763-0.818,1.503-1.518,2.287-2.26
		c3.004-2.843,8.033-7.601,7.262-16.063C303.139,97.653,300.844,92.293,294.501,81.458z M286.008,113.515
		c-5.682,6.088-12.354,23.707-22.953,23.707c-2.459,0-5.128-0.947-8.047-3.207c0,0-3-40.5-1.5-47.5s-0.5-13,3-14.5
		c1.21-0.519,3.557-1.336,6.605-1.336c5.767,0,14.044,2.926,21.895,16.336C297.008,107.515,293.008,106.015,286.008,113.515z"/>
	<path d="M691.104,173.255c-0.625-4.771-1.159-8.528-1.463-10.756c-0.151-1.103-0.324-2.087-0.539-3.002
		c-0.162-0.688-0.347-1.336-0.583-1.984c-0.179-0.487-0.387-0.974-0.661-1.484c-0.418-0.756-0.972-1.607-1.992-2.448
		c-0.51-0.414-1.147-0.811-1.895-1.095c-0.744-0.287-1.592-0.446-2.402-0.443h-0.002c-0.901-0.001-1.736,0.186-2.416,0.445
		c-1.285,0.499-2.065,1.161-2.656,1.73c-0.515,0.509-0.888,0.988-1.213,1.452c-0.562,0.81-0.977,1.586-1.357,2.381
		c-0.564,1.187-1.035,2.413-1.455,3.645c-0.42,1.23-0.781,2.457-1.079,3.6l-0.026,0.103l-0.023,0.103
		c-0.533,2.388-1.375,5.355-2.455,8.688c-1.891,5.841-4.504,12.819-7.451,20.184c-4.424,11.052-9.6,22.991-14.264,33.533
		c-4.667,10.551-8.811,19.681-11.23,25.271c-0.561,1.295-1,2.539-1.311,3.776c-0.309,1.236-0.49,2.47-0.492,3.735
		c-0.006,1.684,0.353,3.469,1.203,5.062c0.629,1.192,1.516,2.229,2.486,3.007c1.467,1.178,3.043,1.8,4.494,2.159
		c1.463,0.356,2.852,0.463,4.195,0.466c1.904-0.002,3.729-0.229,5.451-0.535c2.576-0.463,4.919-1.122,6.666-1.668
		c1.236-0.388,2.16-0.718,2.63-0.892c2.929-0.691,5.944-1.75,8.988-3.006c4.827-1.999,9.677-4.476,13.683-6.724
		c2.004-1.125,3.79-2.192,5.267-3.128c0.739-0.469,1.401-0.905,1.987-1.312c0.592-0.411,1.094-0.777,1.6-1.196l1.867-1.557
		l0.258-2.418c0.564-5.324,0.793-11.109,0.793-17.118c-0.002-13.835-1.217-28.867-2.576-41.622
		C692.447,183.829,691.729,178.028,691.104,173.255z M683.225,245.003c-0.098,0.063-0.191,0.125-0.295,0.19
		c-2.691,1.719-7.137,4.263-11.795,6.524c-2.33,1.133-4.721,2.2-6.965,3.072c-2.241,0.873-4.348,1.545-6.012,1.908l-0.447,0.098
		l-0.425,0.164c-0.093,0.037-1.804,0.682-4.021,1.288c-1.106,0.304-2.339,0.597-3.53,0.805c-1.188,0.21-2.342,0.329-3.219,0.326
		l-0.105-0.002c0.125-0.399,0.299-0.877,0.541-1.436c1.78-4.112,4.627-10.432,7.95-17.885c4.989-11.188,11.065-24.955,16.364-37.985
		c2.65-6.518,5.107-12.852,7.145-18.619c0.487-1.379,0.948-2.722,1.385-4.03c0.787,6.299,1.646,13.805,2.357,21.785
		c0.895,10.022,1.554,20.764,1.553,30.617C683.705,236.483,683.555,240.936,683.225,245.003z"/>
	<g>
		<path d="M771.206,191.501l-4.483-4.856l-17.999-19.499l-0.149-0.162l-0.155-0.155l-19.499-19.5l-1.263-1.262l-1.597-0.798
			c-4.896-2.448-30.097-14.661-45.417-14.661c-18.258,0-32.521,17.169-34.088,19.127l-0.39,0.487l-0.332,0.528
			c-0.125,0.198-12.644,20.084-26.468,40.837c-18.327,27.512-26.896,38.482-30.693,42.815c-7.775-1.94-17.834-2.895-22.681-3.268
			l-2.942-0.226l-2.66,1.277c-17.28,8.294-36.801,17.462-40.509,18.901c-3.593,0.706-19.297,1.741-33.272,2.393l-34.58-17.981
			l-22.212-13.327l-1.036-0.621l-1.146-0.382l-26.998-9l-3.327-1.109l-3.354,1.021l-25.302,7.701l-12.214-26.65l-10.14-31.865
			l-7.39-33.994l-0.169-0.779l-0.28-0.747l-13.499-35.998l-0.741-1.976l-1.419-1.562l-14.708-16.178
			c-1.649-2.134-11.098-14.413-20.418-27.729c-6.716-9.593-16.111-14.876-26.458-14.876h-0.001h-0.002
			c-5.768,0-9.89,1.632-11.016,2.132l-1.867,0.83l-1.445,1.445c-0.394,0.394-9.734,9.771-17.672,20.884
			c-4.883,6.836-9.424,9.31-10.244,9.718l-5.013,1.735l-1.227,4.961l-2.677,8.03l-14.503,26.104l-0.237,0.428l-0.199,0.447
			l-11.999,26.999l-0.838,1.884l-0.098,2.06c-0.062,1.297-1.513,31.848-1.513,39.521c0,7.333,3.593,43.917,4.427,52.306
			c-1.806,13.049-5.194,26.666-7.551,30.367c-9.416,6.271-11.268,17.122-12.388,23.69c-0.229,1.341-0.445,2.608-0.659,3.463
			c-0.798,3.191-1.213,7.895,3.137,26.874c1.419,6.19,2.907,11.971,3.745,15.151l-8.352,41.755
			c-3.007,8.727-15.035,43.737-16.529,49.713c-1.028,4.113-1.078,10.968-1.078,22.729c0,8.158,0,17.405-0.64,21.881
			c-0.552,3.86-0.627,11.14,5.059,29.712c2.887,9.431,5.923,17.422,6.051,17.758l0.521,1.369l0.862,1.185l19.492,26.802
			l-10.749,16.124c-3.767,5.649-5.598,13.901-5.598,25.226c0,7.395,0.813,13.569,0.847,13.828l0.082,0.613l0.15,0.601
			c0.134,0.537,3.35,13.286,8.332,23.251c4.454,8.907,30.19,50.191,34.64,57.316l7.587,16.437c-0.812,16.022-3.124,32.4-5.16,36.178
			c-7.236,9.245-10.473,25.489-11.052,28.675l-0.368,2.024l0.389,2.021l7.499,38.998l1.549,8.053l8.159,0.815l14.999,1.5
			l2.342,0.234l2.231-0.744l26.999-9l0.06-0.02l0.06-0.021c16.427-5.686,36.354-12.15,40.572-12.91
			c5.969-0.292,10.559-4.488,17.38-10.724c2.609-2.385,7.746-7.081,10.428-8.622c2.658,0.78,8.182,3.353,12.462,5.857l0.461,0.27
			l0.485,0.224l18.959,8.75l6.989,4.194l0.756,0.453l0.818,0.327l26.269,10.507c1.002,1.808,2.316,4.077,3.801,6.396
			c5.856,9.152,10.746,13.654,16.347,15.055c6.522,1.631,29.653,2.948,36.588,3.313l1.908,0.101l1.83-0.549l27.701-8.31
			l51.471,7.148c3.776,0.626,55.467,9.125,81.159,9.125c23.609,0,35.313-9.927,40.053-15.557
			c4.524-1.981,13.787-6.206,23.257-11.529c20.82-11.703,30.576-21.673,31.633-32.326c0.81-8.162-4.406-16.594-16.913-27.341
			c-0.549-0.471-1.098-0.935-1.644-1.39l3.115-1.947l0.458-5.493l1.38-16.563c1.373-3.964,4.658-14.384,4.658-23.348
			c0-8.411-3.203-29.939-4.309-37.119l10.038-44.454l0.375-1.663l-0.146-1.699l-4.499-52.497l-0.112-1.301l-0.412-1.238
			c-3.314-9.941-20.159-60.082-26.384-70.976l-0.553-0.966c-0.087-5.141,0.639-15.769,1.816-25.861l7.238-24.608l0.446-1.52v-1.584
			c0-0.099,0.026-10.662,1.483-36.888c1.026-18.469,6.33-25.175,15.117-36.284c2.173-2.748,4.42-5.588,6.795-8.854
			c8.718-11.986,11.712-15.799,12.529-16.81l1.639-1.308l0.156-1.204l13.239-25.007l10.317-15.477
			c3.886-0.194,7.467-1.9,10.151-4.853c4.988-5.486,6.489-14.413,5.02-29.851c-2.739-28.765,6.835-56.542,6.932-56.82
			L771.206,191.501z M751.141,255.602c1.8,18.898-1.801,22.679-4.969,22.679c-2.111,0-4.031-1.68-4.031-1.68L727.142,299.1
			l-13.5,25.499c0,0-1.499,1.5-13.499,17.999c-11.999,16.5-22.499,23.999-23.999,50.998s-1.5,37.498-1.5,37.498l-7.499,25.499
			c0,0-4.16,34.67-0.48,34.67c0.147,0,0.307-0.056,0.48-0.171c5.999,10.499,25.499,68.996,25.499,68.996l4.499,52.497
			l-10.499,46.498c0,0,4.5,28.498,4.5,37.498s-4.5,20.999-4.5,20.999l-1.5,17.999l-12,7.5c0,0,27.968,18.731,26.999,28.498
			c-1.54,15.53-50.997,35.998-50.997,35.998s-7.5,13.5-32.999,13.5c-25.498,0-79.496-9-79.496-9l-53.997-7.499l-29.998,8.999
			c0,0-28.498-1.5-34.498-3s-15-19.499-15-19.499l-29.998-11.999l-7.5-4.5l-19.499-8.999c0,0-12.93-7.567-18.645-7.567
			c-0.307,0-0.592,0.021-0.854,0.067c-8.201,1.437-22.498,19.499-26.998,19.499s-43.498,13.499-43.498,13.499l-26.999,9l-14.999-1.5
			l-7.5-38.998c0,0,3-16.499,9-23.999s7.5-44.998,7.5-44.998l-9-19.499c0,0-29.998-47.998-34.498-56.997s-7.5-20.999-7.5-20.999
			s-3-22.498,3-31.498s14.999-22.499,14.999-22.499l-23.999-32.998c0,0-11.999-31.498-10.499-41.998s0-37.499,1.5-43.498
			s16.499-49.497,16.499-49.497l9-44.998c0,0-9-32.999-7.5-38.998s1.5-16.5,9-20.999c7.499-4.5,11.999-38.998,11.999-38.998
			s-4.5-44.997-4.5-52.497s1.5-38.998,1.5-38.998l11.999-26.999l15-26.999l3-9c0,0,7.499-3,14.999-13.5
			c7.499-10.5,16.499-19.499,16.499-19.499s2.667-1.185,6.551-1.185c4.856,0,11.614,1.851,17.448,10.185
			c10.499,15,20.999,28.499,20.999,28.499l14.999,16.499l13.499,35.998l7.5,34.499l10.499,32.998l16.499,35.999l34.499-10.5
			l26.998,9l22.499,13.499l37.498,19.499c0,0,34.499-1.5,38.998-3c4.5-1.5,41.998-19.499,41.998-19.499s19.499,1.5,25.499,4.5
			c0.095,0.047,0.203,0.071,0.324,0.071c7.517,0,64.172-90.066,64.172-90.066s12-14.999,25.499-14.999s40.498,13.5,40.498,13.5
			l19.499,19.499l17.999,19.499C758.64,194.105,748.141,224.104,751.141,255.602z"/>
	</g>
	<g>
		<path d="M482.006,531.193l-7.144-14.047c-0.356-0.876-0.701-1.704-1.073-2.543c-0.387-0.852-0.765-1.708-1.18-2.546
			c-0.415-0.839-0.795-1.692-1.24-2.52l-1.301-2.495l-1.404-2.455c-0.24-0.407-0.457-0.824-0.726-1.22l-0.774-1.2l-0.777-1.201
			c-0.245-0.405-0.541-0.791-0.836-1.178l-1.762-2.322l-0.217-0.284l-0.324-0.18c-2.574-1.43-5.178-2.815-7.774-4.213l-7.718-3.911
			l-7.718-3.908c-2.573-1.295-5.174-2.534-7.76-3.804l-15.54-7.563l-15.614-7.4c-2.606-1.228-5.201-2.475-7.822-3.669l-7.848-3.614
			c-5.224-2.426-10.471-4.806-15.732-7.153l-7.891-3.524l-7.914-3.477l-7.941-3.419L338,438c5.041,2.803,10.104,5.559,15.185,8.277
			l7.631,4.059l7.652,4.014c5.103,2.672,10.211,5.334,15.342,7.947l7.686,3.943l7.706,3.9l15.425,7.771l15.461,7.688l15.462,7.663
			l7.725,3.832c2.392,1.257,4.777,2.522,7.188,3.752l1.365,1.711c0.271,0.336,0.545,0.67,0.785,1.045l0.745,1.093l0.747,1.094
			c0.259,0.356,0.477,0.75,0.711,1.128l1.39,2.289l1.306,2.354c0.445,0.778,0.834,1.594,1.254,2.39
			c0.422,0.795,0.802,1.611,1.199,2.419c0.398,0.8,0.786,1.632,1.146,2.417l0.069,0.15l0.016,0.029l7.799,13.84l7.711,13.418
			l-2.387,13.124c-0.809,4.542-1.578,9.094-2.318,13.651c1.26-4.442,2.49-8.891,3.682-13.349l3.523-13.384l0.107-0.402l-0.224-0.448
			L482.006,531.193z"/>
		<path d="M623.225,458.213c-1.424,2.982-3.12,6.627-4.781,10.946c-0.82,2.164-1.668,4.481-2.395,7.005
			c-0.734,2.5-1.402,5.26-1.504,8.238c0.016,0.752,0.032,1.512,0.049,2.277c0.036,0.729,0.072,1.465,0.109,2.207
			c0.096,1.473,0.191,2.975,0.289,4.502c0.235,3.036,0.479,6.176,0.728,9.403c0.504,6.444,0.957,13.237,1.406,20.259
			c0.453,7.022,0.706,14.285,0.94,21.658c0.224,7.374,0.291,14.867,0.123,22.35c-0.016,3.743-0.178,7.48-0.281,11.205
			c-0.211,3.719-0.34,7.43-0.655,11.095c-0.249,3.672-0.606,7.302-0.938,10.892c-0.143,1.799-0.403,3.57-0.603,5.337
			c-0.229,1.763-0.386,3.525-0.672,5.251c-0.519,3.46-1.02,6.867-1.642,10.176c-0.306,1.655-0.557,3.306-0.898,4.915
			c-0.346,1.608-0.687,3.197-1.023,4.765c-0.17,0.784-0.34,1.563-0.508,2.335c-0.195,0.766-0.391,1.525-0.584,2.279
			c-0.384,1.511-0.762,2.998-1.133,4.461c-0.804,2.906-1.648,5.698-2.456,8.381c-0.929,2.638-1.773,5.189-2.66,7.584
			c-0.951,2.367-1.823,4.633-2.7,6.737c-0.958,2.07-1.854,4.007-2.684,5.799c-0.839,1.789-1.757,3.355-2.51,4.815
			c-1.484,2.938-2.934,5.078-3.829,6.602C591.491,681.195,591,682,591,682s0.568-0.751,1.636-2.158
			c1.03-1.434,2.746-3.413,4.46-6.246c0.877-1.401,1.938-2.909,2.932-4.641c0.969-1.75,2.018-3.642,3.137-5.664
			c1.033-2.065,2.073-4.296,3.205-6.636c1.064-2.367,2.037-4.918,3.135-7.552c0.967-2.677,1.979-5.471,2.956-8.385
			c0.442-1.472,0.892-2.968,1.349-4.486c0.227-0.761,0.455-1.527,0.686-2.3c0.201-0.778,0.404-1.563,0.609-2.354
			c0.404-1.582,0.814-3.186,1.229-4.81c0.411-1.625,0.732-3.289,1.108-4.962c0.79-3.34,1.325-6.8,1.952-10.306
			c1.101-7.03,2.139-14.321,2.674-21.771c0.349-3.719,0.51-7.477,0.752-11.246c0.133-3.771,0.333-7.559,0.367-11.346
			c0.111-7.577-0.016-15.149-0.299-22.592c-0.258-7.444-0.794-14.755-1.381-21.813c-0.571-7.062-1.337-13.865-2.085-20.302
			c-0.382-3.214-0.754-6.339-1.113-9.362c-0.179-1.506-0.353-2.985-0.524-4.438c-0.075-0.723-0.15-1.438-0.224-2.146
			c-0.053-0.672-0.105-1.338-0.157-1.996c-0.071-2.675,0.432-5.26,0.975-7.732c0.531-2.47,1.205-4.797,1.865-6.975
			c1.365-4.348,2.72-8.105,3.891-11.18c1.184-3.068,2.131-5.48,2.813-7.108C627.633,449.867,628,449,628,449
			s-0.451,0.828-1.298,2.38C625.874,452.941,624.644,455.229,623.225,458.213z"/>
		<path d="M296.696,277.063c1.039,0.914,2.104,1.851,3.194,2.81c1.07,0.982,2.164,1.987,3.282,3.013
			c2.257,2.026,4.519,4.232,6.862,6.508c2.379,2.239,4.701,4.69,7.15,7.144c2.427,2.476,4.786,5.143,7.269,7.797
			c1.185,1.376,2.383,2.768,3.592,4.172c1.203,1.409,2.474,2.784,3.616,4.283c2.323,2.964,4.796,5.895,6.979,9.089
			c1.121,1.576,2.271,3.145,3.386,4.749c1.053,1.641,2.112,3.291,3.175,4.946l1.6,2.486l1.617,2.587
			c1.031,1.706,2.217,3.425,3.358,5.145c1.151,1.717,2.36,3.358,3.541,5.044c1.229,1.641,2.44,3.3,3.692,4.924
			c5.046,6.467,10.385,12.673,15.798,18.622c5.397,5.965,10.985,11.567,16.442,16.922c5.458,5.357,10.91,10.348,16.147,14.998
			c5.226,4.663,10.294,8.926,15.039,12.776c9.481,7.713,17.746,13.692,23.732,17.571c2.985,1.954,5.448,3.313,7.15,4.179
			c0.857,0.425,1.52,0.734,1.988,0.898C455.764,437.906,456,438,456,438s-0.227-0.115-0.666-0.338
			c-0.446-0.205-1.076-0.572-1.884-1.071c-1.612-1.003-3.889-2.61-6.71-4.756c-5.629-4.312-13.395-10.826-22.439-18.939
			c-4.513-4.069-9.332-8.552-14.377-13.341c-5.034-4.803-10.24-9.971-15.565-15.368c-5.322-5.4-10.642-11.149-15.97-17.043
			c-5.308-5.912-10.518-12.074-15.428-18.442c-1.238-1.583-2.433-3.197-3.648-4.793c-1.157-1.63-2.365-3.244-3.478-4.88
			c-1.106-1.644-2.23-3.236-3.295-4.969l-1.596-2.514l-1.668-2.555c-1.112-1.698-2.22-3.389-3.322-5.072
			c-1.181-1.625-2.395-3.21-3.581-4.802c-2.314-3.23-4.901-6.17-7.341-9.145c-1.201-1.505-2.524-2.878-3.781-4.286
			c-1.273-1.392-2.535-2.771-3.782-4.135c-2.618-2.607-5.109-5.227-7.657-7.646c-5.072-4.865-10.03-9.281-14.756-13.169
			c-1.177-0.977-2.329-1.934-3.455-2.869c-1.15-0.905-2.273-1.79-3.368-2.652c-2.184-1.732-4.306-3.309-6.298-4.79
			c-3.973-2.978-7.544-5.425-10.491-7.423c-2.947-2-5.328-3.473-6.942-4.485C272.869,257.527,272,257,272,257
			s0.816,0.604,2.347,1.739c1.522,1.144,3.721,2.867,6.511,5.061c2.78,2.209,6.121,4.931,9.894,8.117
			C292.635,273.513,294.64,275.209,296.696,277.063z"/>
		<path d="M346.875,660.189l2.09,1.8c0.7,0.595,1.463,1.131,2.192,1.699c1.489,1.116,2.88,2.251,4.578,3.336l1.292,0.826
			l1.267-0.844c3.713-2.474,7.417-4.963,11.104-7.477l5.505-3.811c1.832-1.275,3.677-2.53,5.497-3.824l5.457-3.886
			c1.826-1.284,3.62-2.618,5.426-3.934c1.809-1.311,3.604-2.644,5.388-3.993c1.792-1.337,3.567-2.7,5.33-4.083
			c-1.987,1.034-3.962,2.087-5.92,3.167c-1.966,1.067-3.921,2.151-5.862,3.257c-1.944,1.101-3.9,2.184-5.824,3.316l-5.793,3.364
			c-1.93,1.122-3.835,2.284-5.753,3.426l-5.744,3.439c-3.348,2.036-6.679,4.098-10.005,6.166c-0.967-0.726-1.956-1.533-2.934-2.303
			c-1.397-1.064-2.727-2.237-4.058-3.41l-4.005-3.498c-1.359-1.117-2.646-2.416-3.959-3.648l-7.887-7.429l-0.976-0.89l-1.051-0.94
			l-2.105-1.872c-1.49-1.124-2.937-2.317-4.483-3.346c-1.553-1.018-3.067-2.099-4.695-2.976l-2.401-1.381l-2.454-1.267
			c-1.625-0.865-3.299-1.618-4.97-2.372c-1.678-0.737-3.386-1.4-5.083-2.074c-1.719-0.622-3.416-1.292-5.164-1.819
			c-1.729-0.576-3.483-1.074-5.228-1.587c-1.758-0.474-3.523-0.91-5.294-1.314c-1.776-0.386-3.555-0.752-5.352-1.01
			c1.715,0.587,3.404,1.234,5.09,1.875c1.688,0.639,3.351,1.336,5.016,2.016c1.655,0.706,3.313,1.395,4.938,2.158
			c1.637,0.733,3.248,1.518,4.863,2.282c1.594,0.811,3.193,1.606,4.75,2.471c1.55,0.879,3.136,1.685,4.638,2.631l2.276,1.372
			l2.205,1.472c1.491,0.95,2.873,2.037,4.296,3.063c1.417,1.037,2.698,2.224,4.064,3.308l1.882,1.795l0.94,0.896l0.994,0.97
			l7.763,7.559c1.312,1.247,2.559,2.528,3.981,3.719L346.875,660.189z"/>
		<path d="M469.238,630.396l-0.301-1.947c-0.088-0.65-0.203-1.295-0.364-1.933l-0.437-1.915c-0.158-0.634-0.362-1.257-0.541-1.885
			c-0.337-1.262-0.807-2.48-1.254-3.701c-0.424-1.23-1.039-2.386-1.547-3.575c-0.564-1.167-1.201-2.297-1.795-3.44
			c0.469,1.206,0.976,2.391,1.407,3.602c0.378,1.232,0.845,2.428,1.147,3.676c0.33,1.237,0.682,2.465,0.898,3.726
			c0.119,0.627,0.264,1.247,0.361,1.876l0.255,1.892c0.207,1.253,0.229,2.529,0.354,3.787c0.014,1.268,0.096,2.53,0.028,3.793
			c-0.039,2.527-0.376,5.034-0.75,7.519c-0.467,2.474-1.013,4.931-1.796,7.324c-0.766,2.395-1.656,4.748-2.684,7.045
			c-2.023,4.606-4.576,8.979-7.435,13.133c-1.441,2.071-2.931,4.111-4.511,6.087c-1.574,1.98-3.217,3.901-4.922,5.802l-1.295,1.457
			c-0.441,0.531-0.903,1.037-1.324,1.592c-0.847,1.104-1.658,2.254-2.349,3.507c-1.39,2.486-2.362,5.339-2.609,8.25
			c-0.296,2.911,0.06,5.777,0.679,8.453c0.295,1.342,0.711,2.725,1.086,3.908l0.071,0.231l0.019,0.058l0.021,0.066l0.005,0.023
			l0.022,0.094l0.089,0.373l0.189,0.742c0.067,0.505,0.124,1.012,0.152,1.521c0.006,2.047-0.564,4.178-1.625,6.186
			c-0.521,1.006-1.162,1.974-1.855,2.906c-0.629,0.84-1.396,1.701-2.084,2.371c-1.644,0.886-3.387,1.758-5.112,2.58
			c-1.829,0.872-3.683,1.692-5.549,2.477c-1.863,0.791-3.74,1.533-5.632,2.232l-2.852,0.983l-2.875,0.87
			c-0.964,0.241-1.927,0.509-2.893,0.733c-0.96,0.183-1.95,0.424-2.888,0.563l-1.399,0.196l-0.7,0.102l-0.768,0.05l-1.545,0.092
			l-0.386,0.026l-0.294-0.002l-0.772-0.005l-12.354-0.078c-4.119-0.039-8.24-0.028-12.363-0.019l-12.375,0.037
			c-4.13,0.001-8.26-0.027-12.392,0.015c-4.131,0.013-8.264,0.079-12.397,0.148c4.116,0.384,8.231,0.765,12.35,1.091
			c4.117,0.356,8.236,0.643,12.355,0.958c4.12,0.313,8.251,0.498,12.379,0.743c4.129,0.234,8.26,0.47,12.393,0.655l12.4,0.595
			l0.775,0.037l0.194,0.01l0.097,0.005l0.048,0.002l0.14-0.003l0.387-0.009l1.547-0.051l0.778-0.03l0.835-0.09l1.673-0.188
			c1.106-0.138,2.132-0.36,3.202-0.539c1.05-0.216,2.084-0.474,3.127-0.71l3.074-0.845l3.026-0.96
			c1.998-0.685,3.982-1.398,5.932-2.189c1.946-0.799,3.875-1.633,5.779-2.521c1.913-0.894,3.772-1.797,5.687-2.817l0.25-0.134
			l0.195-0.182c1.157-1.073,2.029-2.063,2.913-3.201c0.856-1.128,1.653-2.309,2.332-3.588c1.361-2.532,2.288-5.507,2.217-8.629
			c-0.04-0.772-0.132-1.555-0.254-2.32l-0.288-1.132l-0.15-0.563l-0.038-0.142l-0.025-0.083l-0.073-0.23
			c-0.412-1.271-0.747-2.359-1.018-3.535c-0.563-2.335-0.849-4.658-0.637-6.891c0.168-2.241,0.885-4.38,1.973-6.408
			c0.525-1.021,1.182-2.001,1.879-2.962c0.344-0.482,0.744-0.938,1.113-1.411c0.38-0.472,0.824-0.972,1.238-1.466
			c3.387-3.971,6.617-8.159,9.453-12.6c2.803-4.464,5.283-9.151,7.204-14.08c0.995-2.449,1.757-4.993,2.423-7.551
			c0.673-2.56,1.1-5.179,1.435-7.798c0.262-2.631,0.389-5.275,0.241-7.909C469.532,633.014,469.354,631.703,469.238,630.396z"/>
		<path d="M679.121,287.812c-1.902-0.105-3.688-0.128-5.521-0.114c-1.825-0.028-3.635,0.102-5.454,0.149
			c-1.818,0.066-3.623,0.285-5.436,0.427c-1.813,0.135-3.605,0.457-5.41,0.677c-0.901,0.131-1.801,0.224-2.704,0.387l-2.713,0.518
			l-2.714,0.521l-1.356,0.261l-1.3,0.33l-5.171,1.386l-0.646,0.174l-0.323,0.086l-0.402,0.125l-1.285,0.408l-2.57,0.814
			c-1.715,0.534-3.428,1.085-5.131,1.692c-1.699,0.615-3.426,1.124-5.102,1.827c-1.68,0.684-3.381,1.301-5.041,2.041
			c-1.653,0.753-3.336,1.439-4.963,2.248c-1.617,0.823-3.273,1.578-4.855,2.457c-1.575,0.89-3.182,1.737-4.719,2.674
			c-1.539,0.933-3.1,1.841-4.619,2.793l-2.193,1.381c-0.076-0.537-0.174-1.071-0.277-1.602c-0.204-0.747-0.389-1.499-0.679-2.212
			c-0.248-0.729-0.592-1.415-0.919-2.101c-0.361-0.67-0.73-1.332-1.154-1.955c-0.405-0.634-0.863-1.23-1.336-1.805
			c-0.471-0.578-0.973-1.125-1.484-1.656c-0.523-0.52-1.045-1.04-1.602-1.516c-1.098-0.97-2.249-1.863-3.446-2.677
			c-1.202-0.807-2.441-1.546-3.706-2.228c-1.266-0.679-2.553-1.31-3.875-1.854c-1.318-0.549-2.652-1.055-4.014-1.468
			c1.29,0.595,2.534,1.275,3.752,1.992c1.212,0.726,2.408,1.47,3.559,2.273c1.152,0.801,2.264,1.654,3.324,2.553
			c1.072,0.886,2.082,1.837,3.02,2.84c0.479,0.493,0.915,1.021,1.352,1.544c0.424,0.533,0.833,1.073,1.207,1.634
			c0.373,0.56,0.734,1.126,1.053,1.71c0.335,0.577,0.61,1.178,0.881,1.778c0.234,0.613,0.488,1.218,0.648,1.849
			c0.203,0.618,0.303,1.259,0.432,1.889c0.07,0.64,0.165,1.274,0.157,1.917c0.047,0.638-0.038,1.28-0.062,1.916l-0.112,3.017
			l2.655-1.471l4.666-2.583c1.554-0.862,3.125-1.667,4.686-2.502c1.559-0.843,3.159-1.568,4.729-2.364
			c1.565-0.805,3.185-1.478,4.772-2.223c1.594-0.73,3.241-1.339,4.857-2.015c1.622-0.662,3.301-1.208,4.945-1.818
			c1.642-0.617,3.339-1.133,5.005-1.705c1.665-0.575,3.356-1.099,5.055-1.607l2.541-0.776l1.271-0.388l0.158-0.048l0.08-0.024
			l0.036-0.011l0.286-0.074l0.648-0.167l5.186-1.334l1.291-0.342l1.27-0.254l2.539-0.511l2.541-0.514
			c0.85-0.164,1.728-0.263,2.59-0.398c1.735-0.229,3.459-0.561,5.205-0.708c1.743-0.161,3.484-0.367,5.23-0.504
			c1.746-0.101,3.496-0.287,5.241-0.314c0.512-0.021,1.028-0.03,1.544-0.043c-0.492,0.921-0.971,1.848-1.41,2.791
			c-0.519,1.04-0.966,2.11-1.443,3.166s-0.885,2.142-1.33,3.21c-0.444,1.069-0.807,2.171-1.213,3.254
			c-0.414,1.08-0.74,2.193-1.09,3.296l-0.506,1.659l-0.434,1.683c-0.271,1.125-0.613,2.229-0.814,3.371l-0.686,3.399
			c-0.18,1.143-0.324,2.292-0.474,3.436c-0.181,1.14-0.231,2.298-0.306,3.45c-0.047,1.154-0.207,2.296-0.152,3.454l0.062,3.453
			c0.041,1.147,0.218,2.292,0.319,3.432l0.187,1.707c0.083,0.566,0.229,1.125,0.34,1.686L667,342l-0.243-3.402
			c-0.032-0.565-0.098-1.125-0.103-1.691l0.023-1.697c0.029-1.129-0.016-2.252,0.074-3.375l0.307-3.356
			c0.051-1.118,0.316-2.222,0.467-3.329c0.178-1.106,0.33-2.211,0.611-3.299l0.738-3.27l0.906-3.227
			c0.272-1.081,0.688-2.125,1.027-3.187l0.535-1.584l0.607-1.561c0.412-1.037,0.768-2.092,1.229-3.11
			c0.447-1.021,0.85-2.061,1.334-3.065c0.483-1.004,0.93-2.025,1.442-3.014c0.514-0.987,0.996-1.991,1.546-2.957
			c0.529-0.978,1.075-1.943,1.628-2.901c0.55-0.947,1.141-1.919,1.704-2.776l2.09-3.178L679.121,287.812z"/>
		<path d="M276.989,213.735c2.152,1.511,4.449,2.797,6.694,4.17c2.32,1.243,4.608,2.556,7.018,3.643
			c2.336,1.188,4.892,2.142,7.36,3.123l3.675,1.244l3.751,1.2l7.375,2.335c2.453,0.795,4.926,1.526,7.369,2.346l7.337,2.437
			l3.668,1.219l3.642,1.283c2.429,0.854,4.862,1.704,7.248,2.599l3.342,1.252L345.49,237c0.026-4-0.018-8-0.024-12l0-0.446
			l-0.148-0.397c-0.88-2.362-1.785-4.664-2.733-6.976c-0.948-2.307-1.931-4.604-2.984-6.886c-1.063-2.282-2.154-4.556-3.514-6.8
			c-0.702-1.128-1.396-2.239-2.534-3.423c-0.105-0.123-0.377-0.357-0.599-0.535l-0.348-0.267l-0.197-0.122l-0.257-0.152
			l-0.029-0.039c-0.129-0.098-0.422-0.569-0.652-0.987c-0.971-1.888-1.746-4.244-2.473-6.525c-0.72-2.313-1.384-4.668-2.028-7.035
			l-3.838-14.273c-1.27-4.774-2.569-9.549-3.996-14.294c-0.708-2.375-1.437-4.74-2.198-7.11l-2.259-7.03
			c-0.37-1.171-0.77-2.336-1.114-3.515l-1.009-3.544c-0.701-2.358-1.287-4.742-1.893-7.127c-0.32-1.189-0.578-2.391-0.833-3.593
			c-0.251-1.203-0.542-2.403-0.75-3.614c-0.458-2.418-0.891-4.847-1.081-7.311c-0.043,2.472,0.161,4.945,0.39,7.411
			c0.085,1.24,0.302,2.458,0.454,3.688c0.161,1.229,0.327,2.459,0.554,3.676l0.632,3.666c0.211,1.223,0.509,2.425,0.759,3.64
			l0.786,3.637c0.27,1.211,0.596,2.406,0.892,3.61c0.606,2.407,1.208,4.813,1.869,7.186c0.629,2.365,1.233,4.751,1.815,7.139
			c1.149,4.782,2.263,9.576,3.365,14.382c1.104,4.806,2.165,9.627,3.344,14.448c0.6,2.409,1.221,4.818,1.914,7.233
			c0.354,1.209,0.714,2.417,1.135,3.636c0.423,1.221,0.857,2.435,1.496,3.716c0.363,0.658,0.657,1.292,1.388,2.085l0.271,0.285
			c0.122,0.107,0.278,0.222,0.422,0.325c0.148,0.104,0.301,0.203,0.456,0.295c0.064,0.036-0.321-0.178-0.148-0.081l0.024,0.016
			l0.049,0.031l0.097,0.063l0.194,0.126l0.002,0.035c0.007,0.029-0.017-0.019,0.079,0.094c0.564,0.607,1.211,1.591,1.776,2.574
			c1.141,2.011,2.205,4.184,3.2,6.386c0.998,2.206,1.941,4.453,2.852,6.716c0.854,2.127,1.684,4.287,2.467,6.425
			c-0.005,2.676-0.018,5.353-0.022,8.029c-1.339-0.467-2.677-0.928-4.015-1.387l-3.687-1.268l-3.704-1.2l-7.409-2.4
			c-2.462-0.822-4.969-1.499-7.456-2.241l-7.472-2.184l-1.868-0.546l-0.934-0.273l-0.863-0.264l-3.702-1.162
			c-2.355-0.88-4.667-1.7-6.995-2.758c-2.348-0.954-4.596-2.14-6.879-3.254c-2.213-1.247-4.484-2.407-6.62-3.795
			c-2.188-1.306-4.286-2.751-6.397-4.185c-1.067-0.702-2.053-1.512-3.084-2.263c-1.023-0.763-2.054-1.519-3.018-2.354l-2.947-2.448
			l-2.82-2.592c-0.967-0.84-1.846-1.766-2.739-2.68c-0.875-0.929-1.832-1.792-2.637-2.785l-2.51-2.905l-2.332-3.049
			c-0.813-0.998-1.47-2.096-2.171-3.17l-1.046-1.619c-0.364-0.532-0.613-1.125-0.934-1.682l-0.917-1.699
			c-0.303-0.568-0.634-1.127-0.857-1.731L243,172l1.156,3.715c0.168,0.632,0.445,1.22,0.695,1.82l0.761,1.799
			c0.471,1.223,1.111,2.357,1.734,3.504c0.625,1.145,1.211,2.321,1.953,3.396c0.714,1.092,1.397,2.212,2.144,3.287l2.367,3.131
			c0.761,1.071,1.672,2.01,2.508,3.02c0.853,0.994,1.694,2.002,2.624,2.924l2.74,2.819l2.891,2.663
			c0.948,0.909,1.963,1.737,2.972,2.574c1.019,0.825,1.993,1.709,3.05,2.486l3.145,2.37
			C274.789,212.299,275.907,212.989,276.989,213.735z M332.117,198.958l0.03,0.035l-0.107-0.064L332.117,198.958z"/>
	</g>
</g>
</svg>
