<?xml version="1.0" encoding="UTF-8" standalone="no"?><!DOCTYPE svg PUBLIC "-//W3C//DTD SVG 1.1//EN" "http://www.w3.org/Graphics/SVG/1.1/DTD/svg11.dtd"><svg width="100%" height="100%" viewBox="0 0 504 504" version="1.1" xmlns="http://www.w3.org/2000/svg" xmlns:xlink="http://www.w3.org/1999/xlink" xml:space="preserve"  style="fill-rule:evenodd;clip-rule:evenodd;stroke-linejoin:round;stroke-miterlimit:2;"><path fill="#D9A0F4" d="M139.147,194.473c-20.816,-7.621 -35.629,-17.58 -36.562,-29.781c-2.521,-32.994 91.415,-148.365 141.22,-150.046c49.805,-1.681 155.089,106.965 157.61,139.959c1.136,14.863 -17.56,27.765 -43.003,37.609c3.131,5.368 5.167,10.326 6.318,14.965c3.004,12.114 1.138,22.574 -4.472,32.671c-3.374,6.073 -8.838,11.293 -15.456,15.787c-6.306,4.282 -13.734,7.932 -19.019,12.798c-2.169,1.996 -4.217,4.033 -4.276,7.113c-0.171,8.919 6.133,12.507 12.192,16.046c7.616,4.448 15.449,8.598 20.377,14.81c3.836,4.835 6.455,10.654 6.341,18.451c-0.138,9.563 -2.693,17.393 -6.7,24.034c-5.709,9.464 -14.232,16.425 -21.338,22.792c-4.186,3.75 -8.152,6.832 -8.753,11.09c-0.514,3.638 0.466,7.089 2.159,10.463c4.88,9.726 14.34,18.885 19.378,28.593c1.454,2.607 0.518,5.904 -2.089,7.357c-2.608,1.454 -5.904,0.518 -7.358,-2.089c-5.679,-9.501 -15.766,-18.201 -21.286,-27.731c-3.306,-5.707 -5.034,-11.712 -4.519,-18.111c0.473,-5.887 3.761,-11.268 8.575,-16.646c6.137,-6.855 15.393,-13.814 20.685,-23.909c2.297,-4.381 3.591,-9.471 3.314,-15.565c-0.203,-4.463 -2.728,-7.013 -5.716,-9.132c-3.012,-2.136 -6.589,-3.771 -10.141,-5.527c-8.241,-4.075 -16.176,-8.774 -21.295,-16.058c-3.404,-4.845 -5.53,-10.858 -5.847,-18.628c-0.274,-6.696 1.766,-12.394 5.038,-17.533c4.586,-7.202 12.61,-12.978 20.595,-18.635c5.015,-3.554 10.2,-6.811 12.448,-11.5c2.574,-5.367 2.833,-10.791 -0.344,-17.264c-1.514,-3.086 -3.706,-6.28 -6.595,-9.702c-7.163,1.918 -14.47,3.62 -21.713,5.088c0.421,3.063 0.281,5.783 -0.235,8.236c-1.668,7.922 -7.508,13.187 -12.406,18.41c-3.244,3.459 -5.958,6.955 -3.31,12.853c2.732,6.085 2.971,11.111 1.927,15.58c-1.274,5.452 -4.6,10.053 -7.677,14.813c-2.317,3.584 -4.514,7.275 -4.453,12.001c0.069,5.317 2.674,7.717 5.53,9.991c2.819,2.245 5.832,4.407 8.097,7.706c2,2.914 3.507,6.662 3.742,12.08c0.189,4.358 -0.899,8.127 -2.838,11.519c-3.328,5.822 -9.265,10.497 -14.713,15.367c-4.824,4.312 -9.306,8.748 -10.065,14.928c-0.628,5.116 2.801,7.69 6.624,10.256c4.562,3.063 9.766,6.016 12.541,10.96c2.017,3.593 2.889,8.217 1.266,14.68c-0.25,1.058 -1.312,1.714 -2.369,1.464c-1.058,-0.249 -1.715,-1.311 -1.465,-2.369c1.138,-5.15 0.503,-8.806 -1.174,-11.604c-3.159,-5.267 -9.6,-7.617 -14.17,-10.995c-4.186,-3.095 -7.025,-6.874 -6.454,-12.955c0.704,-7.512 5.635,-13.255 11.328,-18.645c4.808,-4.551 10.188,-8.824 13.051,-14.183c1.276,-2.39 1.975,-5.02 1.758,-8.037c-0.598,-8.298 -5.076,-11.036 -9.018,-13.951c-2.773,-2.051 -5.336,-4.203 -7.101,-7.308c-1.288,-2.266 -2.148,-5.045 -2.3,-8.693c-0.267,-6.406 2.255,-11.599 5.258,-16.55c2.427,-4.003 5.267,-7.781 6.19,-12.314c0.588,-2.888 0.206,-6.088 -1.66,-9.944c-4.986,-10.305 -1.174,-16.8 4.392,-23.086c3.607,-4.074 8.44,-7.864 9.534,-13.917c0.243,-1.346 0.266,-2.796 0.039,-4.383c-9.194,1.604 -18.124,2.807 -26.348,3.572c1.782,8.619 1.592,16.715 -1.454,23.753c-2.549,5.889 -6.296,10.42 -10.989,13.948c-5.349,4.022 -11.93,6.704 -17.988,9.642c-3.852,1.868 -8.044,3.432 -7.79,9.077c0.306,6.795 4.953,9.168 9.515,11.315c6.967,3.279 14.237,6.091 19.26,10.768c4.45,4.143 7.762,9.348 8.549,16.802c0.797,7.544 -0.812,14.144 -3.95,20.125c-2.96,5.645 -7.238,10.724 -11.235,15.635c-2.866,3.521 -5.86,6.706 -6.498,10.565c-0.61,3.691 0.699,7.305 2.116,10.953c2.14,5.507 4.704,11.012 5.809,16.531c0.739,3.691 0.976,7.387 0.292,11.103c-1.359,7.386 -4.493,13.298 -8.608,18.269c-4.499,5.436 -10.097,9.718 -15.043,13.859c-3.939,3.297 -7.791,6.081 -8.233,10.542c-0.324,3.267 2.432,6.125 5.32,9.365c5.695,6.389 13.029,13.025 16.699,20.321c3.434,6.826 4.341,14.159 -0.44,22.295c-1.45,2.609 -4.746,3.55 -7.355,2.1c-2.609,-1.45 -3.55,-4.745 -2.1,-7.354c2.27,-4.329 1.543,-8.098 -0.405,-11.544c-4.283,-7.578 -13.345,-13.898 -18.904,-20.396c-4.347,-5.081 -6.726,-10.417 -6.454,-15.807c0.262,-5.197 2.464,-9.651 5.797,-13.826c3.456,-4.327 8.425,-8.298 13.19,-12.839c4.763,-4.537 9.377,-9.757 10.424,-17.549c0.511,-3.8 -1.156,-7.389 -2.776,-11.052c-2.38,-5.378 -5.152,-10.765 -6.573,-16.215c-0.97,-3.719 -1.281,-7.481 -0.839,-11.297c0.672,-5.794 3.54,-11.261 7.297,-16.683c3.494,-5.044 7.978,-10.059 10.647,-15.807c1.211,-2.608 1.835,-5.437 1.341,-8.628c-0.352,-2.278 -1.847,-3.474 -3.467,-4.498c-2.113,-1.336 -4.605,-2.26 -7.131,-3.249c-6.129,-2.398 -12.428,-4.916 -17.509,-8.846c-6.434,-4.976 -11.124,-12.041 -12.182,-23.333c-1.094,-11.677 2.972,-19.16 8.785,-24.957c4.352,-4.34 10.301,-7.425 16.344,-10.536c4.231,-2.179 8.992,-3.893 10.775,-8.63c1.465,-3.888 -0.357,-8.298 -2.255,-13.026c-14.028,-0.377 -30.398,-1.805 -46.934,-4.259c-2.175,2.893 -3.94,5.639 -4.985,8.573c-1.378,3.868 -1.199,8.068 1.211,13.648c2.261,5.235 3.862,9.499 4.818,13.109c1.088,4.112 1.401,7.48 1.013,10.464c-0.547,4.224 -2.116,7.537 -4.03,10.545c-1.642,2.582 -3.566,4.886 -4.905,7.604c-0.85,1.724 -1.451,3.638 -1.421,6.016c0.011,0.88 0.598,1.544 1.326,2.212c1.098,1.009 2.531,1.924 4.119,2.832c5.084,2.907 11.467,5.744 15.64,9.874c2.25,2.227 3.939,4.79 4.702,7.836c1.003,3.998 0.219,7.959 -2.806,12.243c-2.345,3.321 -6.135,6.952 -11.48,11.125c-3.159,2.467 -4.422,3.965 -4.087,5.626c0.364,1.802 1.902,3.363 3.218,5.216c3.191,4.494 6.063,9.909 0.198,19.031c-3.03,4.711 -1.198,9.103 0.515,13.352c1.585,3.929 3.163,7.78 2.78,11.584c-0.462,4.591 -3.57,9.428 -13.526,14.077c-0.978,0.473 -2.157,0.064 -2.631,-0.915c-0.473,-0.978 -0.064,-2.157 0.915,-2.631c7.726,-3.877 10.543,-7.294 10.804,-10.914c0.287,-3.977 -2.222,-7.862 -3.824,-11.97c-1.892,-4.85 -2.766,-9.887 0.531,-15.347c3.798,-6.292 1.874,-9.91 -0.374,-12.893c-1.909,-2.534 -3.817,-4.837 -4.395,-7.338c-0.723,-3.125 0.132,-6.891 5.978,-11.728c4.605,-3.809 7.91,-7.048 9.894,-10.032c1.592,-2.396 2.202,-4.528 1.591,-6.705c-1.058,-3.764 -4.554,-6.072 -8.26,-8.153c-4.648,-2.61 -9.798,-4.709 -13.277,-7.22c-3.415,-2.466 -5.374,-5.437 -5.518,-8.949c-0.156,-3.825 0.694,-6.937 1.982,-9.749c1.144,-2.495 2.688,-4.72 4.174,-7.031c1.591,-2.477 3.132,-5.069 3.489,-8.599c0.205,-2.025 -0.175,-4.282 -0.989,-7.041c-0.955,-3.234 -2.532,-7.031 -4.706,-11.698c-3.887,-8.346 -3.925,-14.741 -2.005,-20.658c0.786,-2.422 1.977,-4.764 3.452,-7.156c-5.629,-0.99 -11.223,-2.099 -16.698,-3.326c-4.316,1.706 -7.412,5.546 -9.652,9.761c-3.399,6.398 -5.301,13.638 -5.306,18.911c-0.01,10.053 4.688,16.605 8.736,22.389c3.442,4.919 6.628,9.463 8.426,14.226c2.131,5.646 2.976,11.519 0.993,18.237c-1.667,5.649 -5.481,10.846 -10.682,15.572c-4.343,3.947 -9.748,7.633 -13.38,12.347c-1.587,2.06 -2.978,4.27 -2.92,7.124c0.161,7.904 5.643,11.75 10.106,15.06c4.629,3.434 8.733,6.553 10.773,10.033c1.585,2.705 2.478,5.567 2.16,8.811c-0.314,3.206 -1.429,5.965 -3.504,8.318c-2.637,2.989 -7.086,5.443 -12.189,7.98c-5.621,2.794 -12.537,5.941 -14.401,14.689c-0.551,2.585 -0.19,5.142 0.509,7.694c1.423,5.199 3.87,10.365 4.997,15.572c0.73,2.894 -1.027,5.837 -3.922,6.567c-2.894,0.73 -5.837,-1.027 -6.566,-3.922c-1.718,-5.951 -5.217,-11.73 -6.79,-17.695c-0.901,-3.416 -1.174,-6.881 -0.666,-10.43c0.913,-6.375 3.526,-11.15 6.769,-15.019c4.732,-5.646 11.25,-9.002 16.495,-12.146c1.065,-0.639 2.379,-1.701 3.197,-2.398l-0.234,-0.209c-0.824,-0.739 -1.849,-1.393 -2.933,-2.109c-5.181,-3.421 -11.528,-7.262 -16.065,-13.17c-3.313,-4.314 -5.586,-9.693 -6.198,-16.624c-0.661,-7.48 1.779,-13.783 5.579,-19.472c3.368,-5.044 8.156,-9.445 12.551,-13.762c2.78,-2.732 5.609,-5.151 6.299,-8.247c0.842,-3.782 -1.813,-6.202 -4.076,-9.15c-4.072,-5.305 -8.989,-10.894 -12.732,-17.98c-3.157,-5.979 -5.333,-12.953 -5.901,-21.444c-0.69,-10.313 2.281,-25.55 9.416,-37.742c0.113,-0.192 0.226,-0.384 0.341,-0.574Z"/></svg>