<svg xmlns="http://www.w3.org/2000/svg" viewBox="0 0 165.66 209.27"><defs><style>.cls-1{fill:#97F178;fill-rule:evenodd;}</style></defs><g id="Layer_2" data-name="Layer 2"><g id="Layer_1-2" data-name="Layer 1"><g id="Layer_16" data-name="Layer 16"><path class="cls-1" d="M34.93,150.07A10.74,10.74,0,0,0,33.86,153a50.37,50.37,0,0,0-1.47,10.82c.06,11.05,1.46,22.49,5.19,32.93.79,2.18,3.52,7.82,6.65,10.7,1.42,1.32,2.94,2.05,4.39,1.77a1.34,1.34,0,0,0,.93-1,8.82,8.82,0,0,0,.28-2.84c-.08-4.44-1.57-11.86-1.53-13.73a83.19,83.19,0,0,1,2.45-16.76,42.69,42.69,0,0,0,1.2-5.07,4.19,4.19,0,0,0-.67-3.3c-3.76-4.07-5-5.37-7.55-8-1.84-1.93-4.6-6.12-6.46-7.9a3.23,3.23,0,0,0-1.41-.93A.85.85,0,0,0,34.93,150.07ZM75,188a1,1,0,0,0-.45,1.07,9.76,9.76,0,0,0,.63,2.09c.64,1.93,1.33,3.85,1.94,5.8A88,88,0,0,0,80.22,206a7.81,7.81,0,0,0,1.19,2.1,1.32,1.32,0,0,0,1.07.47,2.68,2.68,0,0,0,1.35-.83,12.29,12.29,0,0,0,2.1-2.72,43.59,43.59,0,0,0,4.68-11.9,16.24,16.24,0,0,0,.57-3.79,5.56,5.56,0,0,0-.06-1,1,1,0,0,0-1.22-.84,5,5,0,0,0-1.21.3A27,27,0,0,1,84,189a13.56,13.56,0,0,1-4.45,0c-1-.22-2.39-.77-3.37-1A2.31,2.31,0,0,0,75,188Zm36.15-19.65a1.1,1.1,0,0,0-.21.91,6.45,6.45,0,0,0,.63,1.74c1.31,2.7,4.5,7.3,7.11,11.86a31.73,31.73,0,0,1,3.66,8.36,48.39,48.39,0,0,0,1.38,6.71,6.11,6.11,0,0,0,2.64,3.61c1.41.74,2.78.14,4-1.2,2.57-2.82,4.52-9,5-10.56a49.91,49.91,0,0,0-1.47-31.82c-.43-1.08-1.75-4.79-3.4-6.7a2.71,2.71,0,0,0-2.6-1.22,1.35,1.35,0,0,0-.54.3,11.11,11.11,0,0,0-1.46,1.56c-1.85,2.28-4.53,6.21-6.24,8.24C116.7,163.6,113.6,165.58,111.14,168.33Zm-34.87,2.54a2.46,2.46,0,0,0-1.43.65,5.37,5.37,0,0,0-1.08,1.26A22.45,22.45,0,0,0,71.84,177a6.17,6.17,0,0,0-.19,3.12c.7,3,3.63,6.43,6.77,6.91a2.74,2.74,0,0,0,3-.89A6.45,6.45,0,0,0,82.68,183a30.63,30.63,0,0,0,.26-5.05,9.13,9.13,0,0,0-1.11-5,4.32,4.32,0,0,0-2.08-1.46A10.23,10.23,0,0,0,76.27,170.87Zm9.7,1.24a2.29,2.29,0,0,0-1.18,1.37,7.46,7.46,0,0,0-.41,2.08c-.1,2.27-.25,4-.27,6.68a15.49,15.49,0,0,0,0,2,3.34,3.34,0,0,0,.43,1.38c.62,1,1.71,1,2.86.48a14.17,14.17,0,0,0,3.62-2.6,27.21,27.21,0,0,0,3.47-3.75,6.6,6.6,0,0,0,1.29-3.18,6.19,6.19,0,0,0-.59-2.71,4.6,4.6,0,0,0-4.73-2.83A14,14,0,0,0,86,172.11Zm-26.41-2.49a14.67,14.67,0,0,0,1.83,2.31,20.5,20.5,0,0,0,3.48,3,5.63,5.63,0,0,0,3,1,3.14,3.14,0,0,0,2.39-1.38,11.41,11.41,0,0,0,1.69-3.72,4,4,0,0,0,.16-2.06,3.87,3.87,0,0,0-.92-1.58,14.85,14.85,0,0,0-2-1.69,23,23,0,0,0-2.85-2,5.21,5.21,0,0,0-2.25-.75,3.51,3.51,0,0,0-2.39,1,9.89,9.89,0,0,0-2.29,4.14A2.41,2.41,0,0,0,59.56,169.62Zm35-.54a1.85,1.85,0,0,0-.08,1.48,7,7,0,0,0,2.17,3.17,3.12,3.12,0,0,0,2.21.61c1.53-.24,3.39-1.86,4.5-2.8a14.09,14.09,0,0,0,1.73-1.59,3.47,3.47,0,0,0,.8-1.39,3,3,0,0,0-.19-1.72,8.09,8.09,0,0,0-1.61-2.87,2.69,2.69,0,0,0-2.22-.89,5.93,5.93,0,0,0-2.66,1.1A20.62,20.62,0,0,0,96.17,167,13.09,13.09,0,0,0,94.58,169.08Zm-26.43-6.92a1.07,1.07,0,0,0,0,1.66c4.6,3.81,9.47,6.61,14.71,6.84,5.4.23,10.78-2.71,15.69-6.79A1.09,1.09,0,0,0,99,163a1.06,1.06,0,0,0-.41-.84c-.73-.57-1.38-1.11-1.91-1.48-2.3-1.61-9.53-5.06-13.43-7-1.45-.72-5.38,1.68-5.93,2-2.11,1.36-4.3,2.51-6.29,4.05C69.9,160.62,69,161.45,68.15,162.16Zm43.09-9.07a26.17,26.17,0,0,0-4.6,4,18.8,18.8,0,0,0-2,2.23,4.16,4.16,0,0,0-.8,2,4.76,4.76,0,0,0,1.36,3,4.84,4.84,0,0,0,2.77,1.77,2.42,2.42,0,0,0,1.26-.27,8.15,8.15,0,0,0,1.51-1,34,34,0,0,0,2.9-2.46,34.13,34.13,0,0,0,3.14-3,2.4,2.4,0,0,0,.33-2.41,6.06,6.06,0,0,0-1.54-2.24,7.47,7.47,0,0,0-2.67-1.72A2.08,2.08,0,0,0,111.24,153.09Zm-57.47-1.23a2.13,2.13,0,0,0-1.71,0,8,8,0,0,0-2.82,1.8A6.43,6.43,0,0,0,47.61,156a2.43,2.43,0,0,0,.33,2.49,35.56,35.56,0,0,0,3.29,3.08,33.41,33.41,0,0,0,3,2.53,8.54,8.54,0,0,0,1.58,1,2.62,2.62,0,0,0,1.32.27,5.23,5.23,0,0,0,2.91-1.85,5,5,0,0,0,1.45-3.17,4,4,0,0,0-.83-2A17.89,17.89,0,0,0,58.58,156,25.93,25.93,0,0,0,53.77,151.86Zm46,9.73a1.09,1.09,0,0,0,1.4-.07c4.23-4,8-8.46,11-11.84.63-.71,1.25-1.44,1.85-2.18a1.09,1.09,0,0,0,.18-1,1.08,1.08,0,0,0-.77-.71c-.77-.19-1.46-.33-1.9-.44-3.44-.86-6-1.13-8.08-1.59a18.12,18.12,0,0,1-3.17-1,3.54,3.54,0,0,0-2.78.5,32.36,32.36,0,0,1-9,6.88,17.7,17.7,0,0,1-2.82,1.23,1.1,1.1,0,0,0-.73,1,1.08,1.08,0,0,0,.64,1,97.78,97.78,0,0,1,11.66,6.32C98,160.12,98.87,160.86,99.82,161.59ZM53.28,147.14a1.07,1.07,0,0,0-.12,1.51c2.46,2.93,5.17,5.84,8.1,8.76,1.39,1.39,2.8,2.77,4.24,4.09a1.08,1.08,0,0,0,1.4.05c1-.75,2-1.76,3.3-2.77,2-1.57,4.24-2.74,6.38-4.12a2.46,2.46,0,0,0,0-3.73A24.52,24.52,0,0,1,74.26,149a62.48,62.48,0,0,1-6.46-7.3c-1-1.29-3.38-.83-4.36-.24-1.56.93-5.64,2.59-8.58,4.52A14.73,14.73,0,0,0,53.28,147.14ZM124,145a13.19,13.19,0,0,0-3.46-2.05,1.36,1.36,0,0,0-1.47.23c-.81,1-1.52,2.07-2.06,2.72-.8,1-1.61,1.92-2.32,2.95a3.09,3.09,0,0,0-.73,1.74,2.79,2.79,0,0,0,.88,1.57,27.3,27.3,0,0,0,1.86,2c.29.27.72.83,1.17,1.25a2.18,2.18,0,0,0,1.12.63,2.28,2.28,0,0,0,1.28-.47,11.23,11.23,0,0,0,2.14-1.93,19.14,19.14,0,0,0,2.51-3.2,5.66,5.66,0,0,0,.85-2.64,2.9,2.9,0,0,0-.65-1.77A6.2,6.2,0,0,0,124,145Zm-83.36-1.11a6.2,6.2,0,0,0-1.12,1.05,2.93,2.93,0,0,0-.66,1.77,5.9,5.9,0,0,0,.85,2.64,19.17,19.17,0,0,0,2.52,3.2,11.63,11.63,0,0,0,2.14,1.94,2.34,2.34,0,0,0,1.27.46,2.14,2.14,0,0,0,1.12-.63c.45-.42.88-1,1.17-1.25a25.41,25.41,0,0,0,1.87-2,2.76,2.76,0,0,0,.88-1.57,3.06,3.06,0,0,0-.74-1.74c-.71-1-1.51-2-2.31-3-.54-.65-1.25-1.76-2.06-2.72a1.36,1.36,0,0,0-1.47-.23A13.19,13.19,0,0,0,40.64,143.89Zm27.67-6.06c1-1.22,2.47-1,4-1.36s3-1,4.42-1.25c4.1-.78,7.93-2.16,12-3.1a2.83,2.83,0,0,1,2.47,1.22c1,1.35,2.65,3.1,3.31,4a31.08,31.08,0,0,0,2.18,2.7c.64.72,0,2.34-.25,2.58A36.72,36.72,0,0,1,88,149c-.72.4-3.89,1.65-5.71,2.31a4,4,0,0,1-3.3-.16,32.52,32.52,0,0,1-3.86-3.09,36.52,36.52,0,0,1-6.84-8.16A2.3,2.3,0,0,1,68.31,137.83Zm-27.9-14.39a1.09,1.09,0,0,0-.8,1.36A62.89,62.89,0,0,0,51,146a1.09,1.09,0,0,0,.75.41,1.1,1.1,0,0,0,.81-.26l.22-.18c2.91-2.36,8.19-4.49,10-5.58a26.26,26.26,0,0,0,3.62-2.4,5.26,5.26,0,0,0,1.64-2,4.43,4.43,0,0,0,.14-2.43,21.07,21.07,0,0,0-1.15-3.76,46.86,46.86,0,0,0-3.72-8A3.56,3.56,0,0,0,61,120.4a15.74,15.74,0,0,0-4.32-.19c-5,.32-10.93,2-13.29,2.48C42.41,122.88,41.4,123.21,40.41,123.44ZM126.52,122a1.08,1.08,0,0,0-1.2-1.32c-2.17.29-4.25.56-4.74.64-4,.64-6.36.22-10.4.46a33.63,33.63,0,0,0-7.34,1.16,9.38,9.38,0,0,0-2.73,2,31,31,0,0,1-2.81,2.49c-.81.58-2,1.24-3,2-1.32.88-2.54,2.76-1.6,4,.81,1.09,2.35,2.57,2.82,3.21,3.57,4.81,6,5.52,10,6.23,1.78.31,3.85.63,6.45,1.28.7.17,2,.43,3.26.82a1.07,1.07,0,0,0,1.19-.41A66,66,0,0,0,126.52,122Zm-.06,7.5a29.64,29.64,0,0,0-3.32,6.13,20,20,0,0,0-1.28,3.19,4.52,4.52,0,0,0-.06,2.36,5.39,5.39,0,0,0,2.71,2.67,5.65,5.65,0,0,0,3.68.76,2.86,2.86,0,0,0,1.23-.78,9.38,9.38,0,0,0,1.24-1.63,37.8,37.8,0,0,0,2.13-3.78A41.47,41.47,0,0,0,135,134a2.62,2.62,0,0,0-.63-2.65,7,7,0,0,0-2.57-1.75,8.77,8.77,0,0,0-3.58-.74A2.32,2.32,0,0,0,126.46,129.48Zm-88.28-1.11a2.33,2.33,0,0,0-1.74-.66,8.75,8.75,0,0,0-3.57.74,7,7,0,0,0-2.57,1.75,2.62,2.62,0,0,0-.63,2.65,40.59,40.59,0,0,0,2.17,4.45A38.88,38.88,0,0,0,34,141.07a9.3,9.3,0,0,0,1.23,1.63,3,3,0,0,0,1.24.78,5.66,5.66,0,0,0,3.68-.76,5.39,5.39,0,0,0,2.71-2.67,4.53,4.53,0,0,0-.07-2.36,19.09,19.09,0,0,0-1.27-3.19A29.64,29.64,0,0,0,38.18,128.37Zm53.82-17a4,4,0,0,0-2.84-1.49c-4.55.14-7.38,0-12,.25-1,.07-2.72.36-4.25.37a8.41,8.41,0,0,1-2.17-.14,2.65,2.65,0,0,0-2,.58,30.52,30.52,0,0,0-3.93,5.41c-.39.68-.63,1.25-1,2a3.62,3.62,0,0,0,.57,2.79,62,62,0,0,1,3.82,8.18,35.8,35.8,0,0,1,1.29,3.92,2.9,2.9,0,0,0,2.57,1.85c1.19-.06,2.79-.77,4.41-1.08a128.57,128.57,0,0,0,14.26-3.77,11.78,11.78,0,0,0,2.15-1.45c1.21-.93,2.68-1.72,3.65-2.41a42.26,42.26,0,0,0,3.27-2.92c.92-.83.47-2.69-.09-3.31-1.9-2.09-5.52-5.9-6.25-6.91C93.3,112.93,92.48,112.1,92,111.38Zm41,3.23a10,10,0,0,0-1.9-.19,2.26,2.26,0,0,0-1.67.69,6.2,6.2,0,0,0-1.11,2.38,29,29,0,0,0-.69,3.88,7.43,7.43,0,0,0,.53,4.95,4.83,4.83,0,0,0,1.79,1.68,14.18,14.18,0,0,0,3.39,1.23,2.75,2.75,0,0,0,2-.18,3.06,3.06,0,0,0,1.24-1.32,14.13,14.13,0,0,0,1-5.4c0-.67.06-1.35.06-2,0-1-.11-1.93-.07-2.89a2.12,2.12,0,0,0-1.34-2.07A11,11,0,0,0,133,114.61ZM31.64,113.5a11,11,0,0,0-3.22.74,2.13,2.13,0,0,0-1.35,2.07c.05,1-.07,1.93-.07,2.89,0,.67,0,1.35.06,2,.08,1.36.19,3.83,1,5.4a3,3,0,0,0,1.24,1.32,2.7,2.7,0,0,0,2,.18,14.11,14.11,0,0,0,3.38-1.23,4.79,4.79,0,0,0,1.8-1.68,7.43,7.43,0,0,0,.53-4.95,30.64,30.64,0,0,0-.69-3.88A6.2,6.2,0,0,0,35.22,114a2.26,2.26,0,0,0-1.67-.69A10.2,10.2,0,0,0,31.64,113.5Zm7.74-14.23a1.09,1.09,0,0,0-.92.9,55.7,55.7,0,0,0,.29,21.23,1.08,1.08,0,0,0,1.29.83c1-.22,2.08-.58,3-.79,2.79-.59,11.08-2.9,16.42-2.57a4.45,4.45,0,0,0,3.26-1.37c.37-.66.61-1.12,1-1.77a29.81,29.81,0,0,1,4-5.65,2.31,2.31,0,0,0,.43-2.37,7.72,7.72,0,0,0-.86-1.18c-2.57-2.92-4.56-4.41-7.47-7.43a5.22,5.22,0,0,0-3.13-.87c-4.1.28-9.49.44-10.75.49S42,98.9,39.38,99.27Zm86.75-5.22a1.09,1.09,0,0,0-1.29-.73c-1,.25-2,.55-2.75.69-5.67,1.09-10.49,2.87-16.67,3.38-1.42.11-3.34,1.79-4.22,2.88-.66.82-.88,1.38-1.54,2.19l-.18.21c-.71.85-5.19,5.89-5.2,5.9-.81,1.06-.28,3.21.24,3.89.74,1,4.79,5.28,6.63,7.27.62.67,2.5,1.67,3.53,1.41a27.62,27.62,0,0,1,5.42-.65c4-.23,6.34.19,10.28-.45.58-.09,3.46-.45,6-.8a1.07,1.07,0,0,0,.91-.88A52.15,52.15,0,0,0,126.13,94.05Zm8.61,6a12.87,12.87,0,0,0-4.35.69c-.66.29-1,.73-1.06,1.24,0,1.51.13,3.08.11,4.09,0,1.5-.05,3,.05,4.49a3.8,3.8,0,0,0,.55,2.12,2.8,2.8,0,0,0,1.8.79,27.22,27.22,0,0,0,3,.49c.43,0,1.18.23,1.85.29a2.17,2.17,0,0,0,1.38-.26,2.57,2.57,0,0,0,.74-1.35,14.93,14.93,0,0,0,.5-3.39c.14-2.38.28-5.87-1.12-7.92a3.16,3.16,0,0,0-1.76-1.15A6.25,6.25,0,0,0,134.74,100.1ZM103.68,53.37a1,1,0,0,0-.42.73,1.14,1.14,0,0,0,.26.77,4.2,4.2,0,0,0,1,.86c2.3,1.6,7.81,3.78,11.43,6.54,5.73,4.38,7.9,6.62,10.75,8.88,1.53,1.21,3.53,1.34,5.59,1.44,1.89.09,3.83.17,5.39,1.29,8.46,6.11,15.44,21.53,19,31,.36.95,2,6,3.87,8.14a2.43,2.43,0,0,0,2,1.07,1.69,1.69,0,0,0,.92-.45,6.21,6.21,0,0,0,1.78-3.15,19.09,19.09,0,0,0,.44-5.37,95.38,95.38,0,0,0-3.4-20.1c-2.61-10.12-5.93-20.9-13.09-28.81-5-5.53-14.28-7.91-23.36-8.06S107.86,50.09,103.68,53.37ZM31.29,98.82a6.93,6.93,0,0,0-1.76.12,3.31,3.31,0,0,0-1.85,1.15,6.92,6.92,0,0,0-1.14,3.06,23.4,23.4,0,0,0-.06,4.86,13.93,13.93,0,0,0,.53,3.4,2.58,2.58,0,0,0,.79,1.35,2.34,2.34,0,0,0,1.44.25c.71-.05,1.51-.25,2-.29a30.91,30.91,0,0,0,3.16-.48,3,3,0,0,0,1.9-.79,3.61,3.61,0,0,0,.58-2.13c.11-1.5.08-3,0-4.48,0-1,.16-2.59.12-4.09,0-.51-.42-1-1.12-1.25A14.32,14.32,0,0,0,31.29,98.82ZM61.55,51.59c-4.18-3.29-12.93-5.21-21.9-4.9s-18.14,2.84-23.14,8.37C9.35,63,6,73.75,3.42,83.87A95.38,95.38,0,0,0,0,104a19.44,19.44,0,0,0,.43,5.37,6.36,6.36,0,0,0,1.78,3.15,1.75,1.75,0,0,0,.93.45,2.41,2.41,0,0,0,2-1.06c1.86-2.15,3.51-7.2,3.86-8.15,3.54-9.49,10.52-24.91,19-31a11.3,11.3,0,0,1,5-1.77,16.57,16.57,0,0,0,5.3-1.47c3.45-1.88,5.72-4.83,8.78-7.24,5.87-4.6,11.57-6.9,13.78-8.4a3.87,3.87,0,0,0,.94-.85,1.05,1.05,0,0,0,.18-.72A1.11,1.11,0,0,0,61.55,51.59ZM72.83,83.5a51.22,51.22,0,0,0,5.64,0,53.71,53.71,0,0,1,10.08.19,7.88,7.88,0,0,1,2.86,1.44c1.87,2.07,5.31,6.85,7.67,9.37.43.46.93,1,1.39,1.51a3.67,3.67,0,0,1-.09,3.32c-.55.81-1.09,1.61-1.7,2.36l-.17.21c-.61.72-2.55,3-4.36,4.84-1.16,1.2-3.88,1.66-5.06,1.65-4.92,0-7,.21-12,.53-1,.06-2.67.35-4.18.36a4.7,4.7,0,0,1-2.3-.41,4.38,4.38,0,0,1-1.13-1.33,16.53,16.53,0,0,0-1.23-1.81c-2.29-2.61-4.38-4.27-6.5-6.89a1.76,1.76,0,0,1,0-2,18.37,18.37,0,0,0,1.47-2c.79-1.22,1.46-2.61,2.15-3.65.81-1.2,3-3.41,4.54-5.54.19-.27.63-.77.78-1A2.66,2.66,0,0,1,72.83,83.5Zm61.38,3.88a2.17,2.17,0,0,0-1.47-.69,9.28,9.28,0,0,0-4.39.61,3.31,3.31,0,0,0-1.72,1.75,4.91,4.91,0,0,0-.11,2.22,22.08,22.08,0,0,0,.81,3.15,13.69,13.69,0,0,0,.82,2.28A3.54,3.54,0,0,0,129.22,98a3.81,3.81,0,0,0,1.86.56,11,11,0,0,0,3.81-.23,3,3,0,0,0,2-1.64,5.27,5.27,0,0,0,.17-2.93,19.25,19.25,0,0,0-1.47-4.05A12.68,12.68,0,0,0,134.21,87.38Zm-73.72-19a1.08,1.08,0,0,0-1.44-.33A40.76,40.76,0,0,0,39.83,93.69c-.24,1-.47,1.93-.68,2.88a1.09,1.09,0,0,0,1.19,1.3c2.31-.27,4.6-.38,5.59-.42,1.25,0,7.34-.23,11.38-.71,1.27-.15,2.74-.5,2.93-.54a1,1,0,0,0,.41-.2,8.52,8.52,0,0,0,1.94-2.43c.64-1.07,1.2-2.2,1.79-3.07.7-1,2.8-3.1,4.22-5.13.62-.89,1.45-3.43.37-4.7-.86-1-4.47-6.47-5.16-7.46C62.69,71.6,61.58,70,60.49,68.38ZM31.42,86.43A13.07,13.07,0,0,0,30,88.8a19,19,0,0,0-1.47,4,5.27,5.27,0,0,0,.17,2.93,2.94,2.94,0,0,0,2,1.64,10.69,10.69,0,0,0,3.8.23,3.65,3.65,0,0,0,1.87-.56,3.59,3.59,0,0,0,1.07-1.32,13.79,13.79,0,0,0,.82-2.29,22.08,22.08,0,0,0,.81-3.15A4.91,4.91,0,0,0,39,88.1a3.27,3.27,0,0,0-1.73-1.74,9.1,9.1,0,0,0-4.38-.62A2.26,2.26,0,0,0,31.42,86.43ZM101.67,68a1.09,1.09,0,0,0-1.39.4c-1.92,3.08-3.69,5.82-4.68,7.49-.54.91-2,3.5-2.84,5.11a5.75,5.75,0,0,0,.59,4.79c1.72,2.34,4.76,5.71,6.66,7.82a8.17,8.17,0,0,0,5.11,2c4.33-.4,11.08-1.78,16.73-2.87.63-.12,1.47-.36,2.36-.59a1,1,0,0,0,.7-.56,1.06,1.06,0,0,0,0-.89,40.52,40.52,0,0,0-5.75-10C115.23,75.7,108.36,71.22,101.67,68Zm25.59,8.85a1.94,1.94,0,0,0-1.39-.33,8,8,0,0,0-3.56,1.31,2.87,2.87,0,0,0-1.14,1.81,4.08,4.08,0,0,0,.32,1.88A17.87,17.87,0,0,0,122.73,84a12.57,12.57,0,0,0,1.09,1.76,3.13,3.13,0,0,0,1.16.93,3.27,3.27,0,0,0,1.67.13,9.3,9.3,0,0,0,3.14-.89,2.53,2.53,0,0,0,1.41-1.76,4.5,4.5,0,0,0-.39-2.5,16.1,16.1,0,0,0-1.95-3.1A11,11,0,0,0,127.26,76.83ZM37.38,75.72a10.51,10.51,0,0,0-1.6,1.72,16.1,16.1,0,0,0-2,3.1,4.5,4.5,0,0,0-.39,2.5,2.52,2.52,0,0,0,1.4,1.76,9.43,9.43,0,0,0,3.14.89,3.3,3.3,0,0,0,1.68-.13,3.1,3.1,0,0,0,1.15-.93,11.79,11.79,0,0,0,1.1-1.76,17.87,17.87,0,0,0,1.24-2.48,4.36,4.36,0,0,0,.32-1.88,2.92,2.92,0,0,0-1.15-1.81,7.93,7.93,0,0,0-3.55-1.31A1.93,1.93,0,0,0,37.38,75.72Zm24.79-9.34a1.08,1.08,0,0,0-.57.7,1.12,1.12,0,0,0,.14.89c1,1.51,2.07,3,3.11,4.52.66,1,3.74,5.22,5.41,7.46a6.56,6.56,0,0,0,3.48,2.25,23.36,23.36,0,0,0,4.58,0,58.49,58.49,0,0,1,9.22-.08,5.63,5.63,0,0,0,4.23-2c1-1.61,2.17-3.94,2.74-4.9.95-1.6,2.63-4.2,4.46-7.13a1.09,1.09,0,0,0,.12-.9,1.12,1.12,0,0,0-.61-.67,56.32,56.32,0,0,0-11.1-3.66c-4.75-.89-11.52-.29-13-.12A34.31,34.31,0,0,0,62.57,66.2Zm61.5,6.36a22.42,22.42,0,0,0-3.6-3.92,15.23,15.23,0,0,0-2-1.72,3.54,3.54,0,0,0-1.73-.64,4.23,4.23,0,0,0-2.66,1.31,4.45,4.45,0,0,0-1.49,2.53,2.31,2.31,0,0,0,.27,1.12,7.29,7.29,0,0,0,.88,1.31,30.19,30.19,0,0,0,2.19,2.47,30.58,30.58,0,0,0,2.67,2.67,2.1,2.1,0,0,0,2.16.22,5.45,5.45,0,0,0,1.92-1.44,6.92,6.92,0,0,0,1.44-2.43A1.88,1.88,0,0,0,123.67,72.74ZM41,71.63a1.84,1.84,0,0,0-.06,1.48,6.69,6.69,0,0,0,1.44,2.43A5.45,5.45,0,0,0,44.27,77a2.1,2.1,0,0,0,2.16-.22,30.47,30.47,0,0,0,2.66-2.67,28.54,28.54,0,0,0,2.2-2.47,7.86,7.86,0,0,0,.88-1.31,2.3,2.3,0,0,0,.26-1.12A4.43,4.43,0,0,0,51,66.66a4.25,4.25,0,0,0-2.66-1.31,3.64,3.64,0,0,0-1.73.64,14.6,14.6,0,0,0-2,1.72A22.42,22.42,0,0,0,41,71.63Zm65.67-11.48a1.76,1.76,0,0,0-1.29.41,6.91,6.91,0,0,0-2.11,2.82,2.7,2.7,0,0,0,.07,2.05,4.42,4.42,0,0,0,1.26,1.4,18,18,0,0,0,2.31,1.44,11.34,11.34,0,0,0,1.81.92,3,3,0,0,0,1.41.21,2.82,2.82,0,0,0,1.42-.71,7.86,7.86,0,0,0,2-2.26,2.44,2.44,0,0,0,.16-2.15A4.65,4.65,0,0,0,112,62.42a16.4,16.4,0,0,0-3.21-1.62A11.11,11.11,0,0,0,106.64,60.15ZM58,59a11,11,0,0,0-2.18.65,16.4,16.4,0,0,0-3.21,1.62A4.72,4.72,0,0,0,51,63.17a2.4,2.4,0,0,0,.16,2.15,7.86,7.86,0,0,0,2,2.26,2.82,2.82,0,0,0,1.42.71,3.06,3.06,0,0,0,1.41-.2,12.25,12.25,0,0,0,1.81-.93,18.71,18.71,0,0,0,2.31-1.44,4.42,4.42,0,0,0,1.26-1.4,2.75,2.75,0,0,0,.07-2,7,7,0,0,0-2.11-2.82A1.78,1.78,0,0,0,58,59Zm40.43-4.71a1.56,1.56,0,0,0-1.17.06,5.77,5.77,0,0,0-2.31,1.84,2.3,2.3,0,0,0-.38,1.7,3.78,3.78,0,0,0,.72,1.41A15.7,15.7,0,0,0,96.84,61,9.93,9.93,0,0,0,98.1,62.1a2.52,2.52,0,0,0,1.12.48,2.47,2.47,0,0,0,1.31-.28,6.63,6.63,0,0,0,2.1-1.41,2.07,2.07,0,0,0,.6-1.74,4,4,0,0,0-1-1.86,13.43,13.43,0,0,0-2.24-2A9.14,9.14,0,0,0,98.42,54.33Zm-32.2-1.11a9.63,9.63,0,0,0-1.63,1,14.29,14.29,0,0,0-2.23,2,3.9,3.9,0,0,0-1,1.86,2,2,0,0,0,.6,1.74,6.63,6.63,0,0,0,2.1,1.41,2.47,2.47,0,0,0,1.31.28A2.61,2.61,0,0,0,66.54,61a9.93,9.93,0,0,0,1.26-1.12,14.71,14.71,0,0,0,1.55-1.64,3.67,3.67,0,0,0,.73-1.41,2.3,2.3,0,0,0-.38-1.7,5.84,5.84,0,0,0-2.31-1.84A1.56,1.56,0,0,0,66.22,53.22ZM76.14,50a3.38,3.38,0,0,0-1.74,1.06,12.2,12.2,0,0,0-3,5.57c-.43,2.1.06,3.89,2.1,4.24s7.06-.18,9.09,0a53.19,53.19,0,0,0,5.5,0,13.07,13.07,0,0,0,2.5-.27,3.18,3.18,0,0,0,1.5-.76A4.48,4.48,0,0,0,93,56.73c0-1.9-.77-4.06-2-5a7.1,7.1,0,0,0-2.77-1.24,30.67,30.67,0,0,0-4.39-.56A32.08,32.08,0,0,0,76.14,50Zm19.74-2.66c.2-4-.19-5.45.17-9.25.16-1.7,1.64-4,3-6.54s2.73-5.59,2.49-8.39c-.33-3.92-2.14-12.94-7.88-18.76C90.57,1.26,87.44,0,84.42,0c-4.49,0-8.75,2.75-12.33,6.23-5.53,5.38-6.8,11.2-7.47,16.37S66.72,33.06,69,39.3c.41,1.14.13,3.29.17,5.15A5,5,0,0,0,70,47.71a2,2,0,0,0,.88.48,6.84,6.84,0,0,0,1.84.2c2.7,0,6.92-.79,10.36-.72,3.91.08,8.36,1.56,10.72,1.39a2.35,2.35,0,0,0,1.63-.63A1.61,1.61,0,0,0,95.88,47.34Z"/></g></g></g></svg>